<?xml version="1.0" encoding="UTF-8"?><svg id="a" xmlns="http://www.w3.org/2000/svg" viewBox="0 0 283.465 55.31"><g id="b"><path d="M46.098,4.951h31.7v7.213h-23.455v10.523h15.608v7.213h-15.608v11.778h24.181v7.213h-32.426V4.951ZM76.242,17.659h8.435l7.381,21.773,6.845-21.773h8.176l-11.339,31.237h-7.571l-11.926-31.237h0ZM105.782,33.344c0-9.527,6.586-16.279,16.006-16.279s15.937,6.751,15.937,16.279-6.706,16.149-16.127,16.149-15.815-6.62-15.815-16.149h0ZM129.427,33.541v-.266c0-5.958-2.904-9.529-7.64-9.529s-7.709,3.571-7.709,9.529v.266c0,5.827,2.835,9.266,7.571,9.266,4.805,0,7.778-3.44,7.778-9.266ZM141.44,4.353h8.245v44.542h-8.245V4.353ZM154.369,36.383v-18.73h8.176v18.268c0,4.169,1.97,6.62,5.669,6.62,4.269,0,6.05-3.642,6.05-9v-15.883h8.176v31.237h-8.176v-4.435c-1.642,3.244-4.477,5.028-8.487,5.028-7.052,0-11.408-5.028-11.408-13.105ZM189.906,40.618v-16.349h-4.408v-6.62h4.408v-5.891l7.968-4.501v10.392h6.136v6.62h-6.205v15.551c0,1.523.726,2.185,2.247,2.25h3.63v6.815h-6.326c-5.998-.33-7.312-3.108-7.45-8.272v.005ZM207.726,5.077h8.504v8.006h-8.504V5.077ZM207.847,17.648h8.245v31.237h-8.245v-31.237ZM219.808,33.336c0-9.529,6.585-16.279,16.006-16.279s15.936,6.75,15.936,16.279-6.706,16.147-16.127,16.147-15.815-6.62-15.815-16.147h0ZM243.454,33.531v-.266c0-5.958-2.904-9.529-7.64-9.529s-7.709,3.571-7.709,9.529v.266c0,5.827,2.835,9.266,7.571,9.266,4.805,0,7.778-3.44,7.778-9.266ZM255.397,17.648h8.176v5.099c1.642-3.642,4.667-5.756,9.092-5.756,6.776,0,10.803,4.565,10.803,13.169v18.73h-8.176v-18.268c0-4.369-1.642-6.62-5.462-6.62s-6.257,3.175-6.257,9.002v15.881h-8.176v-31.237h0ZM32.219,9.784C24.769-.077,11.218-2.858,0,3.159c4.39,9.914,7.674,21.557,29.297,22.24,2.524.081,5.324.01,8.383-.23-.432-6.219-2.454-11.387-5.462-15.385ZM28.226,27.162c-12.998.648-19.117,5.41-22.936,11.287-2.247,3.455-3.682,7.298-5.289,10.908,15.781,8.459,36.159-.462,37.681-22.009-3.509-.277-6.637-.327-9.455-.187ZM34.5,54.67c-1.417,0-2.541-1.158-2.541-2.558,0-1.414,1.124-2.553,2.541-2.553,1.4,0,2.541,1.139,2.541,2.553s-1.141,2.558-2.541,2.558ZM34.5,48.9c-1.763,0-3.198,1.436-3.198,3.212,0,1.763,1.435,3.198,3.198,3.198s3.181-1.435,3.181-3.198c0-1.775-1.417-3.212-3.181-3.212ZM33.273,51.588h-.467v-.316h1.348v.316h-.467v1.353h-.415v-1.353ZM34.327,51.272h.622l.311,1.065.311-1.065h.622v1.67h-.38v-1.348l-.432,1.348h-.311l-.398-1.34v1.34h-.346v-1.67Z" fill="#fff"/></g></svg>