<?xml version="1.0" encoding="UTF-8"?><svg id="a" xmlns="http://www.w3.org/2000/svg" viewBox="0 0 37.681 55.31"><g id="b"><path d="M32.219,9.784C24.769-.077,11.218-2.858,0,3.159c4.39,9.915,7.674,21.558,29.298,22.24,2.524.081,5.324.01,8.383-.23-.432-6.219-2.455-11.387-5.462-15.385ZM28.226,27.162c-12.998.648-19.117,5.41-22.937,11.287-2.247,3.455-3.682,7.298-5.289,10.908,15.781,8.459,36.16-.462,37.681-22.009-3.509-.277-6.638-.327-9.455-.187ZM34.5,54.671c-1.417,0-2.541-1.158-2.541-2.558,0-1.414,1.124-2.553,2.541-2.553,1.4,0,2.541,1.139,2.541,2.553s-1.141,2.558-2.541,2.558ZM34.5,48.901c-1.763,0-3.198,1.436-3.198,3.212,0,1.763,1.435,3.198,3.198,3.198s3.181-1.435,3.181-3.198c0-1.775-1.417-3.212-3.181-3.212ZM33.273,51.589h-.467v-.316h1.348v.316h-.467v1.353h-.415v-1.353ZM34.328,51.273h.622l.311,1.065.311-1.065h.622v1.67h-.38v-1.348l-.432,1.348h-.311l-.398-1.34v1.34h-.346v-1.67Z"/></g></svg>