<?xml version="1.0" encoding="UTF-8" standalone="no" ?>
<!DOCTYPE svg PUBLIC "-//W3C//DTD SVG 1.1//EN" "http://www.w3.org/Graphics/SVG/1.1/DTD/svg11.dtd">
<svg xmlns="http://www.w3.org/2000/svg" xmlns:xlink="http://www.w3.org/1999/xlink" version="1.1" width="1080" height="1080" viewBox="0 0 1080 1080" xml:space="preserve">
<desc>Created with Fabric.js 5.2.4</desc>
<defs>
</defs>
<g transform="matrix(1 0 0 1 540 540)" id="b592eaa6-dcd2-4c7f-91da-6960ef69f41c"  >
<rect style="stroke: none; stroke-width: 1; stroke-dasharray: none; stroke-linecap: butt; stroke-dashoffset: 0; stroke-linejoin: miter; stroke-miterlimit: 4; fill: rgb(255,255,255); fill-rule: nonzero; opacity: 1; visibility: hidden;" vector-effect="non-scaling-stroke"  x="-540" y="-540" rx="0" ry="0" width="1080" height="1080" />
</g>
<g transform="matrix(1 0 0 1 540 540)" id="cdc8c0a2-41ea-46f9-bb00-66ac3f83f136"  >
</g>
<g transform="matrix(25.16 0 0 25.16 540 540)" id="f94514f0-095e-46a0-99f8-8125deae94b3"  >
<path style="stroke: rgb(0,0,0); stroke-width: 0; stroke-dasharray: none; stroke-linecap: butt; stroke-dashoffset: 0; stroke-linejoin: miter; stroke-miterlimit: 4; fill: rgb(255,255,255); fill-rule: nonzero; opacity: 1;" vector-effect="non-scaling-stroke"  transform=" translate(-8.68, -16.02)" d="M 14.92 17.56 C 14.6 17.24 14.04 17.24 13.72 17.56 C 13.400000000000002 17.88 13.4 18.439999999999998 13.72 18.759999999999998 L 14.48 19.52 L 10.72 19.52 C 10.120000000000001 19.52 9.64 19.2 9.120000000000001 18.56 C 8.840000000000002 18.2 8.32 18.119999999999997 7.920000000000001 18.4 C 7.5600000000000005 18.68 7.48 19.2 7.760000000000001 19.599999999999998 C 8.600000000000001 20.72 9.56 21.24 10.68 21.24 L 14.44 21.24 L 13.68 22 C 13.36 22.32 13.36 22.88 13.68 23.2 C 13.84 23.36 14.08 23.439999999999998 14.28 23.439999999999998 C 14.479999999999999 23.439999999999998 14.719999999999999 23.36 14.879999999999999 23.2 L 17.08 21 C 17.4 20.68 17.4 20.12 17.08 19.8 L 14.919999999999998 17.560000000000002 z M 10.72 12.48 L 14.48 12.48 L 13.72 13.24 C 13.4 13.56 13.4 14.120000000000001 13.72 14.44 C 13.88 14.6 14.120000000000001 14.68 14.32 14.68 C 14.52 14.68 14.76 14.6 14.92 14.44 L 17.12 12.239999999999998 C 17.44 11.919999999999998 17.44 11.359999999999998 17.12 11.04 L 14.920000000000002 8.84 C 14.600000000000001 8.52 14.040000000000001 8.52 13.720000000000002 8.84 C 13.400000000000004 9.16 13.400000000000002 9.72 13.720000000000002 10.04 L 14.480000000000002 10.799999999999999 L 10.720000000000002 10.799999999999999 C 8.240000000000002 10.799999999999999 7.080000000000002 13.36 6.040000000000003 15.639999999999999 C 5.160000000000003 17.64 4.280000000000003 19.479999999999997 2.9200000000000026 19.479999999999997 L 0.8400000000000025 19.479999999999997 C 0.36000000000000254 19.479999999999997 2.55351295663786e-15 19.839999999999996 2.55351295663786e-15 20.319999999999997 C 2.55351295663786e-15 20.799999999999997 0.36000000000000254 21.199999999999996 0.8400000000000025 21.199999999999996 L 2.9200000000000026 21.199999999999996 C 5.400000000000002 21.199999999999996 6.560000000000002 18.639999999999997 7.600000000000002 16.359999999999996 C 8.480000000000002 14.359999999999996 9.320000000000002 12.479999999999997 10.720000000000002 12.479999999999997 z M 0.84 12.48 L 2.92 12.48 C 3.52 12.48 4 12.76 4.48 13.4 C 4.640000000000001 13.6 4.880000000000001 13.72 5.16 13.72 C 5.36 13.72 5.5200000000000005 13.680000000000001 5.68 13.56 C 6.04 13.280000000000001 6.12 12.76 5.84 12.360000000000001 C 5 11.32 4.04 10.760000000000002 2.92 10.760000000000002 L 0.8399999999999999 10.760000000000002 C 0.3599999999999999 10.8 -1.1102230246251565e-16 11.160000000000002 -1.1102230246251565e-16 11.640000000000002 C -1.1102230246251565e-16 12.120000000000003 0.3599999999999999 12.480000000000002 0.8399999999999999 12.480000000000002 z" stroke-linecap="round" />
</g>
</svg>